<svg xmlns="http://www.w3.org/2000/svg" viewBox="0 0 880 420" font-family="Inter, -apple-system, sans-serif">
  <defs>
    <filter id="s" x="-4%" y="-4%" width="108%" height="108%">
      <feDropShadow dx="1" dy="2" stdDeviation="2" flood-opacity="0.3"/>
    </filter>
    <marker id="a" markerWidth="7" markerHeight="5" refX="7" refY="2.5" orient="auto">
      <path d="M0,0 L7,2.5 L0,5" fill="#8b949e"/>
    </marker>
  </defs>

  <rect width="880" height="420" rx="12" fill="#161b22"/>

  <!-- Supervision tree box -->
  <rect x="30" y="20" width="820" height="230" rx="10" fill="#0d1117" stroke="#3b82f6" stroke-width="2" filter="url(#s)"/>
  <rect x="30" y="20" width="820" height="30" rx="10" fill="#3b82f6"/>
  <rect x="30" y="42" width="820" height="8" fill="#3b82f6"/>
  <text x="440" y="42" text-anchor="middle" fill="#ffffff" font-size="14" font-weight="700">Civitas Supervision Tree (ONE_FOR_ALL)</text>

  <!-- Memory Agent -->
  <rect x="55" y="65" width="170" height="80" rx="8" fill="#1c2333" stroke="#58a6ff" filter="url(#s)"/>
  <text x="140" y="90" text-anchor="middle" fill="#58a6ff" font-size="13" font-weight="700">MemoryAgent</text>
  <text x="140" y="108" text-anchor="middle" fill="#8b949e" font-size="11">SQLite + FTS5</text>
  <text x="140" y="124" text-anchor="middle" fill="#8b949e" font-size="11">Sessions · Memories</text>
  <text x="140" y="140" text-anchor="middle" fill="#8b949e" font-size="11">Config · Tenants</text>

  <!-- ConversationManager -->
  <rect x="245" y="65" width="230" height="80" rx="8" fill="#1c2333" stroke="#58a6ff" filter="url(#s)"/>
  <text x="360" y="90" text-anchor="middle" fill="#58a6ff" font-size="13" font-weight="700">ConversationManager</text>
  <text x="360" y="108" text-anchor="middle" fill="#8b949e" font-size="11">LLM · MCP Tools · Governance</text>
  <text x="360" y="124" text-anchor="middle" fill="#8b949e" font-size="11">Skills · Trust · Media</text>
  <text x="360" y="140" text-anchor="middle" fill="#8b949e" font-size="11">Intent · Compression</text>

  <!-- Scheduler -->
  <rect x="495" y="65" width="160" height="80" rx="8" fill="#1c2333" stroke="#58a6ff" filter="url(#s)"/>
  <text x="575" y="90" text-anchor="middle" fill="#58a6ff" font-size="13" font-weight="700">SchedulerAgent</text>
  <text x="575" y="108" text-anchor="middle" fill="#8b949e" font-size="11">Cron · Active Hours</text>
  <text x="575" y="124" text-anchor="middle" fill="#8b949e" font-size="11">Skill Triggers</text>
  <text x="575" y="140" text-anchor="middle" fill="#8b949e" font-size="11">Morning Briefing</text>

  <!-- Dashboard -->
  <rect x="675" y="65" width="160" height="80" rx="8" fill="#1c2333" stroke="#bc8cff" filter="url(#s)"/>
  <text x="755" y="90" text-anchor="middle" fill="#bc8cff" font-size="13" font-weight="700">DashboardServer</text>
  <text x="755" y="108" text-anchor="middle" fill="#8b949e" font-size="11">GenServer · :8080</text>
  <text x="755" y="124" text-anchor="middle" fill="#8b949e" font-size="11">Topology · Health</text>
  <text x="755" y="140" text-anchor="middle" fill="#8b949e" font-size="11">Activity · Trust</text>

  <!-- Feature labels -->
  <rect x="55" y="160" width="110" height="28" rx="5" fill="#1c3a2a" stroke="#3fb950"/>
  <text x="110" y="179" text-anchor="middle" fill="#3fb950" font-size="11">SOUL.md Persona</text>

  <rect x="175" y="160" width="100" height="28" rx="5" fill="#1c3a2a" stroke="#3fb950"/>
  <text x="225" y="179" text-anchor="middle" fill="#3fb950" font-size="11">SKILL.md Files</text>

  <rect x="285" y="160" width="110" height="28" rx="5" fill="#3b2e1a" stroke="#d29922"/>
  <text x="340" y="179" text-anchor="middle" fill="#d29922" font-size="11">Policy + Audit</text>

  <rect x="405" y="160" width="100" height="28" rx="5" fill="#3b2e1a" stroke="#d29922"/>
  <text x="455" y="179" text-anchor="middle" fill="#d29922" font-size="11">Trust Scores</text>

  <rect x="515" y="160" width="90" height="28" rx="5" fill="#1c2333" stroke="#58a6ff"/>
  <text x="560" y="179" text-anchor="middle" fill="#79c0ff" font-size="11">Compression</text>

  <rect x="615" y="160" width="80" height="28" rx="5" fill="#1c2333" stroke="#58a6ff"/>
  <text x="655" y="179" text-anchor="middle" fill="#79c0ff" font-size="11">STT · Vision</text>

  <rect x="705" y="160" width="130" height="28" rx="5" fill="#2a1c33" stroke="#bc8cff"/>
  <text x="770" y="179" text-anchor="middle" fill="#d2a8ff" font-size="11">/view/ Content</text>

  <text x="440" y="215" text-anchor="middle" fill="#6e7681" font-size="10">Crash recovery: any agent crashes → supervisor restarts all → sessions restored from checkpoint</text>

  <!-- Arrows down -->
  <line x1="140" y1="250" x2="140" y2="290" stroke="#8b949e" stroke-width="1.5" marker-end="url(#a)"/>
  <line x1="360" y1="250" x2="360" y2="290" stroke="#8b949e" stroke-width="1.5" marker-end="url(#a)"/>
  <line x1="575" y1="250" x2="575" y2="290" stroke="#8b949e" stroke-width="1.5" marker-end="url(#a)"/>

  <!-- External services -->
  <rect x="55" y="295" width="170" height="50" rx="8" fill="#0d1117" stroke="#8b949e" stroke-width="1.5" stroke-dasharray="5,3" filter="url(#s)"/>
  <text x="140" y="318" text-anchor="middle" fill="#c9d1d9" font-size="12" font-weight="600">Telegram</text>
  <text x="140" y="335" text-anchor="middle" fill="#8b949e" font-size="10">Polling · Rich HTML</text>

  <rect x="275" y="295" width="170" height="50" rx="8" fill="#0d1117" stroke="#bc8cff" stroke-width="1.5" stroke-dasharray="5,3" filter="url(#s)"/>
  <text x="360" y="318" text-anchor="middle" fill="#c9d1d9" font-size="12" font-weight="600">AgentGateway</text>
  <text x="360" y="335" text-anchor="middle" fill="#8b949e" font-size="10">:4000 · Anthropic LLM</text>

  <rect x="490" y="295" width="170" height="50" rx="8" fill="#0d1117" stroke="#3fb950" stroke-width="1.5" stroke-dasharray="5,3" filter="url(#s)"/>
  <text x="575" y="318" text-anchor="middle" fill="#c9d1d9" font-size="12" font-weight="600">MCP Servers</text>
  <text x="575" y="335" text-anchor="middle" fill="#8b949e" font-size="10">Gmail · Calendar · Search</text>

  <rect x="705" y="295" width="130" height="50" rx="8" fill="#0d1117" stroke="#8b949e" stroke-width="1.5" stroke-dasharray="5,3" filter="url(#s)"/>
  <text x="770" y="318" text-anchor="middle" fill="#c9d1d9" font-size="12" font-weight="600">Browser</text>
  <text x="770" y="335" text-anchor="middle" fill="#8b949e" font-size="10">Dashboard :8080</text>

  <text x="140" y="370" text-anchor="middle" fill="#6e7681" font-size="9">User messages</text>
  <text x="360" y="370" text-anchor="middle" fill="#6e7681" font-size="9">LLM proxy (Rust)</text>
  <text x="575" y="370" text-anchor="middle" fill="#6e7681" font-size="9">Docker sidecars</text>
  <text x="770" y="370" text-anchor="middle" fill="#6e7681" font-size="9">Homelab embed</text>

  <text x="440" y="405" text-anchor="middle" fill="#484f58" font-size="10">Dashed borders = external services (independent lifecycle, Docker restart policy)</text>
</svg>
